<svg width="13" height="15" viewBox="0 0 13 15" fill="none" xmlns="http://www.w3.org/2000/svg">
<path fill-rule="evenodd" clip-rule="evenodd" d="M6.50004 14.5833C6.33106 14.5833 6.1663 14.5373 6.02879 14.4517C5.78179 14.2994 -0.0234908 10.6451 7.15303e-05 6.07987C7.15303e-05 2.95896 2.91612 0.416748 6.50004 0.416748C10.084 0.416748 13 2.95896 13 6.08342C13.0236 10.6451 7.21828 14.2994 6.97128 14.4517C6.83377 14.5373 6.66901 14.5833 6.50004 14.5833ZM11.375 6.08696C11.375 3.73954 9.18858 1.83341 6.50004 1.83341C3.81149 1.83341 1.62506 3.73954 1.62506 6.08342C1.608 9.22912 5.19111 12.0525 6.50004 12.979C7.80978 12.0532 11.3921 9.23054 11.375 6.08696ZM9.75002 6.08341C9.75002 7.646 8.2924 8.91675 6.50004 8.91675C4.70767 8.91675 3.25005 7.646 3.25005 6.08341C3.25005 4.52083 4.70767 3.25008 6.50004 3.25008C8.2924 3.25008 9.75002 4.52083 9.75002 6.08341ZM8.12503 6.08341C8.12503 5.30212 7.39622 4.66675 6.50004 4.66675C5.60385 4.66675 4.87505 5.30212 4.87505 6.08341C4.87505 6.86471 5.60385 7.50008 6.50004 7.50008C7.39622 7.50008 8.12503 6.86471 8.12503 6.08341Z" fill="#D39F65"/>
</svg>
