<svg width="23" height="20" viewBox="0 0 23 20" fill="none" xmlns="http://www.w3.org/2000/svg">
<path d="M10.554 5.20019L7.171 1.94602C6.781 1.57102 6.066 1.57269 5.613 1.95102L2.831 4.27352C2.003 4.96435 1.766 5.99019 2.245 6.81269C5.10662 11.7502 9.88505 15.7378 15.806 18.1294C16.792 18.5285 18.022 18.331 18.85 17.6402L21.658 15.296C22.113 14.9169 22.114 14.3177 21.66 13.9927L17.74 11.1885C17.33 10.8952 16.693 10.9335 16.282 11.2769L14.918 12.4152C14.8482 12.4762 14.7562 12.5164 14.6564 12.5296C14.5565 12.5429 14.4541 12.5284 14.365 12.4885C12.1354 11.4186 10.286 9.87538 9.005 8.01602C8.95703 7.94165 8.93966 7.85621 8.95555 7.77282C8.97145 7.68942 9.01973 7.61268 9.093 7.55435L10.453 6.42019C10.865 6.07519 10.91 5.54185 10.554 5.19935V5.20019Z" stroke="#2D2D2D" stroke-width="2" stroke-linecap="round" stroke-linejoin="round"/>
</svg>
