<svg width="22" height="17" viewBox="0 0 22 17" fill="none" xmlns="http://www.w3.org/2000/svg">
<path d="M20.75 0.59375H1.25C0.835156 0.59375 0.5 0.914941 0.5 1.3125V15.6875C0.5 16.0851 0.835156 16.4062 1.25 16.4062H20.75C21.1648 16.4062 21.5 16.0851 21.5 15.6875V1.3125C21.5 0.914941 21.1648 0.59375 20.75 0.59375ZM19.8125 3.08242V14.7891H2.1875V3.08242L1.54063 2.59951L2.46172 1.46523L3.46484 2.21318H18.5375L19.5406 1.46523L20.4617 2.59951L19.8125 3.08242V3.08242ZM18.5375 2.21094L11 7.82617L3.4625 2.21094L2.45938 1.46299L1.53828 2.59727L2.18516 3.08018L10.1914 9.0458C10.4217 9.21722 10.7049 9.31028 10.9965 9.31028C11.2881 9.31028 11.5713 9.21722 11.8016 9.0458L19.8125 3.08242L20.4594 2.59951L19.5383 1.46523L18.5375 2.21094Z" fill="#2D2D2D"/>
</svg>
